<svg width="162" height="39" viewBox="0 0 162 39" fill="none" xmlns="http://www.w3.org/2000/svg">
<path d="M79.6001 38.8999C79.3001 38.7999 79.1001 38.5999 78.8001 38.4999C77.0001 37.8999 76.1001 36.2999 76.6001 34.2999C76.9001 32.7999 78.6001 31.6999 80.3001 31.8999C80.5001 31.8999 80.8001 32.1999 80.9001 32.4999C81.3001 33.3999 81.7001 34.2999 82.1001 35.1999C82.5001 35.9999 83.0001 36.1999 83.6001 35.4999C84.4001 34.5999 84.9001 33.4999 85.5001 32.3999C86.0001 31.3999 86.4001 30.2999 86.9001 29.2999C87.3001 28.5999 87.1001 27.8999 86.8001 27.1999C85.2001 23.2999 83.6001 19.2999 82.0001 15.3999C80.8001 12.5999 80.0001 9.4999 77.9001 6.8999C81.1001 6.8999 84.1001 6.8999 87.3001 6.8999C86.7001 7.5999 86.1001 8.1999 85.6001 8.8999C85.4001 9.1999 85.3001 9.5999 85.4001 9.8999C86.9001 13.5999 88.3001 17.1999 89.8001 20.8999C89.8001 20.9999 89.9001 20.9999 90.0001 21.1999C90.7001 19.4999 91.4001 17.8999 92.0001 16.2999C92.5001 15.0999 93.0001 13.7999 93.5001 12.4999C93.8001 11.6999 93.8001 10.9999 93.3001 10.2999C92.6001 9.1999 92.0001 8.0999 91.2001 6.8999C93.5001 6.8999 95.6001 6.8999 97.9001 6.8999C97.2001 7.9999 96.5001 8.8999 95.9001 9.8999C95.1001 11.2999 94.4001 12.5999 93.8001 14.0999C91.9001 18.7999 90.0001 23.4999 88.1001 28.1999C87.0001 30.7999 85.9001 33.2999 84.6001 35.7999C83.9001 37.1999 82.6001 38.0999 81.1001 38.3999C80.8001 38.4999 80.6001 38.6999 80.4001 38.7999C80.1001 38.8999 79.8001 38.8999 79.6001 38.8999Z" fill="#302E3F"/>
<path d="M1.10003 0.89995C3.60003 0.89995 6.00002 0.89995 8.30002 0.89995C10.8 0.99995 10.8 0.99995 11.8 3.39995C13.9 8.39995 16.1 13.3 18.3 18.4C18.7 17.6 19 16.9 19.3 16.2C20.8 12.3 22.4 8.39995 23.9 4.49995C24.2 3.79995 24.5 3.19995 24.7 2.49995C25.4 0.69995 25.4 0.699951 27.3 0.699951C29.3 0.699951 31.4 0.699951 33.7 0.699951C32.6 1.49995 31.6 2.19995 30.8 2.89995C30.5 3.19995 30.2 3.69995 30.2 4.09995C30.2 10.5 30.2 17 30.2 23.4C30.2 23.8 30.5 24.2999 30.8 24.5C31.7 25.2 32.7 25.9 33.8 26.7C29.5 26.7 25.4 26.7 21.1 26.7C22.2 25.9 23.2 25.2 24.1 24.5C24.4 24.2999 24.6 23.7999 24.6 23.5C24.6 17.7 24.6 11.8999 24.6 6.09995C24.6 5.99995 24.6 5.99995 24.4 5.79995C21.7 12.9999 19 20 16.1 27.2C12.6 19.6 9.70003 12.0999 6.20003 4.79995C6.10003 4.79995 6.00002 4.79995 5.90002 4.89995C5.90002 5.19995 5.90002 5.49995 5.90002 5.89995C5.90002 10.5999 6.00002 15.3 5.80002 19.9C5.70002 21.9 6.50002 23.2 7.90002 24.4C8.80002 25.1 9.50002 26 10.4 27C7.00002 27 3.80002 27 0.400024 27C1.30002 26.1 2.00003 25.3999 2.70003 24.5999C3.30003 23.9999 3.90002 23.6 4.40002 23C4.70002 22.6 4.90002 21.9999 4.90002 21.5999C4.90002 16.1999 4.90002 10.6999 4.90002 5.29995C4.90002 4.79995 4.60003 4.19995 4.20003 3.89995C3.20003 2.79995 2.20003 1.89995 1.10003 0.89995Z" fill="#302E3F"/>
<path d="M130.5 27C126.9 27 123.5 27 119.8 27C120.6 26.4 121.3 26 121.8 25.4C122.1 25.1 122.5 24.6 122.5 24.2C122.5 19.5 122.5 14.8 122.5 10.1C122.5 8.89998 121.3 8.69999 120.8 7.99999C120.5 7.69999 120.1 7.49999 119.6 6.99999C122.4 6.99999 124.9 6.99999 127.6 6.99999C127.6 8.29999 127.6 9.59999 127.6 10.9C128.4 9.89999 129.1 8.69999 130.1 7.79998C132.2 5.99998 136.8 5.89999 138.6 8.99999C139.7 10.8 139.9 12.8 139.9 14.8C139.9 17.8 139.9 20.8 139.8 23.7C139.8 24.5 140 25.1 140.8 25.6C141.4 25.9 141.9 26.4 142.6 26.9C139 26.9 135.6 26.9 132 26.9C132.5 26.5 132.8 26.1 133.3 25.8C134.3 25.2 134.7 24.4 134.7 23.3C134.7 20.9 134.8 18.5 134.8 16.1C134.8 14.7 134.6 13.4 134.4 12C134.2 10.8 133.6 9.79999 132.3 9.39999C131 8.99999 129.8 9.49999 128.8 10.4C128 11.2 127.5 12 127.6 13.3C127.7 16.8 127.7 20.2 127.6 23.7C127.6 24.5 127.8 25.1 128.6 25.5C129.2 25.9 129.7 26.4 130.5 27Z" fill="#302E3F"/>
<path d="M78.4 27C74.8 27 71.4 27 67.7 27C68.5 26.4 69.2 25.9 69.9 25.3C70.2 25.1 70.5 24.7 70.5 24.4C70.5 20.6 70.5 16.8 70.4 13C70.4 12.2 70 11.4 69.6 10.7C69 9.50003 67.1 9.00003 65.9 9.70003C64.4 10.5 63.3 11.6 63.4 13.6C63.5 17 63.5 20.4 63.4 23.9C63.4 24.6 63.6 25.1 64.2 25.5C64.8 25.9 65.4 26.4 66.2 26.9C62.6 26.9 59.2 26.9 55.6 26.9C56.3 26.4 56.8 25.9 57.5 25.6C58.1 25.2 58.4 24.8 58.4 24.1C58.4 19.5 58.4 14.9 58.4 10.3C58.4 9.80003 58.1 9.30003 57.8 9.00003C57.2 8.40003 56.4 7.80003 55.6 7.10003C58.4 7.10003 60.9 7.10003 63.5 7.10003C63.5 8.50003 63.5 9.80003 63.5 11.4C64.2 10.4 64.6 9.40003 65.3 8.60003C67 6.70003 69.2 6.40003 71.5 7.00003C73.7 7.50003 74.8 9.10003 75.3 11.1C75.6 12.5 75.7 13.9 75.8 15.3C75.8 18.2 75.8 21.1 75.7 24.1C75.7 24.8 75.9 25.3 76.6 25.7C77.1 25.9 77.6 26.4 78.4 27Z" fill="#302E3F"/>
<path d="M118 16.7999C117.9 18.9999 117.7 20.9999 116.7 22.7999C115.5 24.9999 113.7 26.3999 111.4 26.8999C108.3 27.5999 105.3 27.5999 102.5 25.7999C100.3 24.3999 99.1 22.3999 98.6 19.9999C98.2 17.9999 98.2 15.8999 98.6 13.8999C99.4 9.79992 102.6 6.99992 106.8 6.69992C108.6 6.59992 110.4 6.59992 112.2 7.29992C115.6 8.49992 117.3 11.0999 117.9 14.4999C117.9 15.2999 117.9 16.0999 118 16.7999ZM112.4 16.9999C112.3 16.9999 112.2 16.9999 112.1 16.9999C112.2 14.5999 112 12.1999 111.2 9.89992C110.6 8.19992 109.5 7.29992 107.9 7.29992C106.4 7.29992 105.3 8.19992 104.7 9.89992C103.7 13.1999 103.6 16.4999 103.9 19.8999C104 21.4999 104.4 23.0999 104.9 24.6999C105.5 26.5999 107.3 27.2999 109.1 26.5999C110.3 26.0999 111 25.0999 111.2 23.8999C111.8 21.4999 112.1 19.2999 112.4 16.9999Z" fill="#302E3F"/>
<path d="M46.5 16.4999C46.5 14.5999 46.6 12.8999 46.5 11.1999C46.3 8.6999 44.9 7.2999 42.6 7.2999C41.9 7.2999 41.6 7.4999 41.3 8.0999C40.9 8.9999 40.5 9.7999 40 10.6999C39.6 11.5999 39.1 12.3999 38.6 13.4999C37.8 11.5999 37.1 9.7999 36.3 7.7999C38.2 7.3999 39.9 6.7999 41.7 6.5999C43.8 6.3999 45.9 6.2999 47.9 7.0999C50.2 7.9999 51.1 9.9999 51.3 12.0999C51.5 15.0999 51.3 18.0999 51.3 21.0999C51.3 21.6999 51.3 22.2999 51.3 22.8999C51.4 24.1999 51.9 24.5999 53.3 24.4999C53.4 24.4999 53.6 24.4999 53.8 24.4999C53.4 26.0999 52 27.0999 50.2 27.0999C48.1 27.0999 47 26.0999 46.4 23.4999C45.8 24.1999 45.2 25.0999 44.5 25.7999C42.7 27.3999 39.4 27.5999 37.5 26.1999C35.5 24.6999 34.8 21.7999 35.7 19.3999C37.2 15.3999 42.2 14.2999 45.6 15.8999C45.8 16.1999 46.1 16.2999 46.5 16.4999ZM46.4 19.8999C46.5 19.0999 46.5 18.2999 46.5 17.4999C46.5 17.2999 46.3 16.8999 46.1 16.7999C44.5 16.0999 42.4 16.5999 41.4 17.9999C40.5 19.2999 40.2 20.6999 40.5 22.1999C40.7 23.1999 41.2 24.0999 42.3 24.4999C44.2 25.1999 46.4 23.6999 46.5 21.6999C46.4 21.0999 46.4 20.4999 46.4 19.8999Z" fill="#302E3F"/>
<path d="M149.3 16.2C149.3 19.2 149.7 21.9 152.3 23.5C155.2 25.3 158 24.3 160.8 22.5C159.9 24.7 158.5 26.1 156.5 26.8C153.2 27.8 150.1 27.5 147.3 25.3C145.8 24.1 144.8 22.5 144.4 20.6C143.8 17.5 143.7 14.4 145.2 11.5C146.5 8.80002 148.7 7.30001 151.6 6.80001C154 6.40001 156.3 6.70002 158.4 8.00002C161.1 9.60002 162 13.1 161.5 15.8C161.5 16 161 16.2 160.7 16.2C157.3 16.2 153.8 16.2 150.4 16.2C150.1 16.2 149.8 16.2 149.3 16.2ZM149.3 15.2C151.7 15.2 154 15.2 156.3 15.2C156.5 15.2 156.7 14.9 156.8 14.8C156.9 12.9 156.9 11 156.1 9.20002C155.6 8.10002 154.8 7.40002 153.6 7.40002C152.4 7.30002 151.3 7.80002 150.7 8.90002C149.5 10.7 149.3 12.9 149.3 15.2Z" fill="#302E3F"/>
</svg>
