<svg width="60" height="34" viewBox="0 0 60 34" fill="none" xmlns="http://www.w3.org/2000/svg">
<path d="M0.300049 33.2999V0.399902H20.6V5.9999H6.10004V14.0999H13.5V19.6999H6.10004V33.1999H0.300049V33.2999Z" fill="#302F3F"/>
<path fill-rule="evenodd" clip-rule="evenodd" d="M12.4001 18.0998C11.9001 19.4998 11.6001 20.8998 11.6001 22.3998C11.6001 24.3998 12.1001 26.2998 13.1001 27.9998C14.1001 29.6998 15.4001 30.9998 17.1001 31.8998C18.8001 32.8998 20.7001 33.2998 22.8001 33.2998C24.6001 33.2998 26.3001 32.8998 27.9001 32.0998C29.5001 31.2998 30.7001 30.2998 31.7001 28.8998L28.0001 25.9998C27.4001 26.7998 26.7001 27.3998 25.7001 27.7998C24.8001 28.1998 23.8001 28.3998 22.8001 28.3998C21.3001 28.3998 20.0001 27.9998 19.0001 27.1998C18.0001 26.3998 17.3001 25.2998 17.0001 23.9998H33.0001C33.1001 23.4998 33.1001 22.8998 33.1001 22.2998C33.1001 20.2998 32.7001 18.4998 31.8001 16.7998C30.9001 15.0998 29.6001 13.7998 28.0001 12.7998C26.4001 11.7998 24.5001 11.2998 22.5001 11.2998C20.9001 11.2998 19.4001 11.5998 18.0001 12.1998C16.6001 12.7998 15.5001 13.5998 14.6001 14.5998C13.6001 15.4998 12.9001 16.6998 12.4001 18.0998ZM27.6001 19.8998H17.1001C17.5001 18.7998 18.2001 17.7998 19.1001 17.1998C20.1001 16.4998 21.2001 16.1998 22.4001 16.1998C23.7001 16.1998 24.9001 16.5998 25.8001 17.2998C26.9001 17.9998 27.4001 18.8998 27.6001 19.8998Z" fill="#302F3F"/>
<path fill-rule="evenodd" clip-rule="evenodd" d="M30.3 18.0999C29.8 19.4999 29.5 20.9 29.5 22.4C29.5 24.4 30 26.3 31 28C32 29.7 33.3 31 35 31.9C36.7 32.9 38.6 33.2999 40.7 33.2999C42.5 33.2999 44.2 32.8999 45.8 32.0999C47.4 31.2999 48.6 30.3 49.6 28.9L45.9 25.9C45.3 26.7 44.6 27.3 43.6 27.7C42.7 28.1 41.7 28.2999 40.7 28.2999C39.2 28.2999 37.9 27.8999 36.9 27.0999C35.9 26.2999 35.2 25.2 34.9 23.9H50.9C51 23.4 51 22.8 51 22.2C51 20.2 50.6 18.4 49.7 16.7C48.8 15 47.5 13.7 45.9 12.7C44.3 11.7 42.4 11.2 40.4 11.2C38.8 11.2 37.3 11.4999 35.9 12.0999C34.5 12.6999 33.4 13.5 32.5 14.5C31.5 15.5 30.8 16.6999 30.3 18.0999ZM45.5 19.9H35C35.4 18.8 36.1 17.8 37 17.2C38 16.5 39.1 16.2 40.3 16.2C41.6 16.2 42.8 16.5999 43.7 17.2999C44.8 17.9999 45.3 18.9 45.5 19.9Z" fill="#302F3F"/>
<path d="M49.2001 25.2999C49.2001 27.8999 49.8001 29.7999 51.2001 31.1999C52.5001 32.5999 54.4001 33.2999 56.8001 33.2999C57.7001 33.2999 58.7001 33.1999 60.0001 32.8999V27.8999C59.6001 27.9999 59.1001 27.9999 58.6001 27.9999C57.2001 27.9999 56.3001 27.6999 55.8001 26.9999C55.3001 26.2999 55.1001 25.1999 55.1001 23.5999V0.599854H49.4001V25.2999H49.2001Z" fill="#302F3F"/>
</svg>
