<svg width="162" height="50" viewBox="0 0 162 50" fill="none" xmlns="http://www.w3.org/2000/svg">
<path d="M29 0.5C29.8 0.7 30.6 1 31.3 1.2C34.1 2.1 35.2 5.1 33.7 7.7C32.6 9.6 30.9 11.1 29.4 12.7C28.1 14 26.5 15.2 25.9 17C25.3 18.7 24.7 20.5 24.5 22.3C24.2 24.6 24.4 26.9 24.2 29.2C24.1 31.7 23.5 34.1 21.4 35.7C20.4 36.5 19.2 37 17.8 37.2C14 37.7 11.6 35.5 9.50002 32.9C5.50002 27.9 3.40003 22 1.70003 15.9C1.40003 14.8 1.30003 13.6 1.10003 12.4C1.10003 12.3 1.00002 12.2 0.900024 12.1C0.900024 10.6 0.900024 9.1 0.900024 7.6C1.00002 7.3 1.20002 7 1.30002 6.8C1.90002 4.8 3.60003 3.7 5.60003 3.7C7.10003 3.7 8.30002 4.3 9.60003 4.9C11.2 5.7 12.7 5.7 14.3 4.9C16.5 3.8 18.7 2.7 21 1.8C22.1 1.3 23.4 1 24.6 0.700001C26.1 0.500001 27.5 0.5 29 0.5Z" fill="#302F3F"/>
<path d="M120.2 18.7999C120.1 22.7999 119.5 26.5999 117.8 30.0999C117.2 31.3999 116.4 32.6 115.2 33.4C113.1 34.8 110.3 34.2999 109.2 31.7999C108.5 30.4 108 28.9999 107.3 27.5999C106.6 26.2999 105.6 25.1 103.9 25.5C103 25.7 102.1 26.2999 101.3 26.7999C100.5 27.4 99.9 28.1999 99.1 28.7999C97.3 30.1999 95.8 30.1999 93.6 28.7999C92.8 28.2999 91.9 27.8 91 27.4C90 26.9 89 27.1999 88.3 28.0999C87.2 29.3999 86.3 30.7999 85.3 32.0999C84.2 33.3999 82.9 34.1999 81.2 34.2999C76.9 34.6999 74.8 31.8999 73.9 28.5999C73.2 25.9999 73.2 23.4 73.5 20.7999C73.8 17.4999 74.1 14.1999 75.3 11.0999C76.4 8.29995 77.7 5.79995 80.5 4.29995C83.8 2.49995 87.8 2.79995 90.9 5.49995C92.6 6.99995 94.5 8.19995 96.8 8.09995C98.7 7.99995 100.2 7.09995 101.8 6.09995C103.3 5.19995 104.7 4.19995 106.3 3.59995C109.2 2.49995 112.1 2.79995 114.7 4.69995C117.5 6.79995 118.8 9.79995 119.5 12.9999C119.9 14.6999 120 16.7999 120.2 18.7999Z" fill="#302F3F"/>
<path d="M161 16.6001C161.1 21.5001 159.8 26.0001 157.9 30.4001C156.8 33.2001 155.3 35.7001 153.5 38.1001C151.1 41.3001 148.2 44.0001 144.7 46.1001C142.3 47.6001 139.7 48.7001 136.9 49.0001C133.9 49.4001 130.9 49.6001 127.9 48.6001C124.3 47.4001 123.7 42.9001 126.1 40.3001C127.6 38.7001 129.6 37.8001 131.4 36.6001C133.1 35.5001 134.6 34.2001 134.9 32.1001C135.1 31.0001 134.9 29.9001 134.7 28.9001C134 26.0001 132.3 23.5001 130.9 20.8001C129.7 18.5001 128.7 16.1001 128.3 13.6001C127.9 11.4001 128.1 9.40012 129.6 7.60012C131.8 5.00012 134.7 4.40012 137.4 6.30012C138.8 7.30012 140 8.50012 141.3 9.60012C143.5 11.7001 146 12.1001 148.8 10.7001C150.5 9.90012 152.1 9.00012 153.9 8.70012C155.8 8.40012 157.7 8.40012 159.2 9.80012C160.5 11.0001 160.9 12.6001 161 14.2001C161.1 15.1001 161 15.9001 161 16.6001Z" fill="#302F3F"/>
<path d="M52.6 40.9001C48.2 40.9001 44.3 39.6001 41 36.8001C37.9 34.2001 36 30.8001 35.4 26.8001C34.9 23.3001 35.2 19.9001 36.8 16.7001C38.4 13.4001 40.8 10.7001 43.9 8.80011C46.3 7.40011 48.8 6.50011 51.6 6.30011C55.8 5.90011 59.6 6.80011 62.7 9.70011C65.4 12.2001 66.5 16.3001 63.9 20.1001C63.1 21.3001 62.1 22.5001 61.4 23.8001C60.6 25.0001 60 26.3001 60.3 27.8001C60.5 28.6001 61 29.3001 61.5 29.9001C62.2 30.8001 63.3 31.5001 63.9 32.4001C65.4 34.7001 64.9 36.7001 62.6 38.3001C60.5 39.7001 58.1 40.4001 55.6 40.7001C54.6 40.8001 53.6 40.8001 52.6 40.9001Z" fill="#302F3F"/>
</svg>
