<svg width="158" height="54" viewBox="0 0 158 54" fill="none" xmlns="http://www.w3.org/2000/svg">
<path d="M26.3118 43.4718C25.1142 43.6271 24.0079 44.194 23.1825 45.0755C22.357 45.9569 21.8638 47.098 21.7874 48.3032C21.7109 49.5083 22.0559 50.7026 22.7633 51.6813C23.4708 52.66 24.4965 53.3622 25.6649 53.6676C25.9835 53.7449 26.3118 53.7835 26.6304 53.8704H27.2773C27.3561 53.8372 27.4367 53.8082 27.5187 53.7835C28.848 53.5787 30.046 52.8663 30.8608 51.7962C31.6755 50.7261 32.0435 49.3816 31.8871 48.0457C31.7307 46.7098 31.0623 45.4867 30.0225 44.6336C28.9826 43.7805 27.6524 43.364 26.3118 43.4718Z" fill="#302E3F"/>
<path d="M31.3903 9.27319L31.7476 8.91595C32.2899 8.35859 32.6958 7.68332 32.9336 6.94296C33.1715 6.20261 33.2348 5.41726 33.1186 4.64836C32.9617 3.38747 32.3448 2.22892 31.3861 1.39499C30.4274 0.561066 29.1946 0.1105 27.9241 0.129742C27.215 0.143793 26.5156 0.297725 25.8661 0.582708C25.2166 0.867691 24.6298 1.27811 24.1393 1.79043L2.26069 23.6208L1.98069 23.9008C1.46744 24.4439 1.07887 25.0924 0.842071 25.8011C0.605274 26.5098 0.525958 27.2617 0.609657 28.0042C0.747569 29.276 1.34994 30.4522 2.30134 31.3074C3.25274 32.1626 4.48626 32.6367 5.76552 32.6387H6.33517C7.63748 32.4668 8.84269 31.8574 9.75311 30.9104C16.9269 23.698 24.1393 16.447 31.3903 9.27319Z" fill="#302E3F"/>
<path d="M31.3903 18.0595C30.6366 18.048 29.8888 18.1931 29.1941 18.4856C28.4993 18.7781 27.8729 19.2116 27.3545 19.7588C23.4924 23.6208 19.7462 27.4153 15.9227 31.2002C14.8317 32.3298 13.6634 33.4112 12.611 34.5408C12.0439 35.1153 11.624 35.8182 11.387 36.5898C11.15 37.3614 11.1028 38.1788 11.2496 38.9726C11.3994 39.9106 11.8039 40.7895 12.4191 41.5132C13.0343 42.237 13.8366 42.7778 14.7382 43.0767C15.6399 43.3756 16.6063 43.421 17.532 43.2081C18.4577 42.9951 19.3072 42.532 19.9876 41.8691C24.9761 36.9514 29.942 31.9983 34.8855 27.0098C35.3717 26.5325 35.7553 25.9608 36.0126 25.3299C36.27 24.6989 36.3957 24.0221 36.382 23.3408C36.382 23.0222 36.382 22.694 36.2952 22.3753C36.09 21.2055 35.4924 20.1405 34.6008 19.3559C33.7091 18.5714 32.5767 18.1141 31.3903 18.0595Z" fill="#302E3F"/>
<path d="M157.332 42.9312C157.226 42.1838 156.856 41.499 156.29 41.0002C155.769 40.5635 155.203 40.1847 154.6 39.8705C153.789 39.465 152.949 39.185 152.138 38.7795C151.796 38.615 151.472 38.4144 151.172 38.1809C150.972 38.0291 150.838 37.8048 150.8 37.5559C150.762 37.307 150.823 37.0531 150.97 36.8485C151.057 36.7712 151.134 36.6457 151.25 36.6071C151.456 36.4586 151.689 36.3505 151.935 36.2885C152.647 36.138 153.386 36.1915 154.069 36.4429C154.716 36.6843 155.286 37.0126 155.923 37.2926C156.251 36.6457 156.57 35.9216 156.975 35.2747C157.016 35.2211 157.045 35.159 157.059 35.0929C157.073 35.0269 157.072 34.9585 157.056 34.8928C157.041 34.8271 157.011 34.7658 156.968 34.7132C156.926 34.6607 156.872 34.6183 156.811 34.5891C155.458 33.6867 153.848 33.2494 152.225 33.3436C151.016 33.3404 149.834 33.704 148.836 34.3864C148.382 34.7054 148.007 35.1254 147.743 35.6133C147.478 36.1013 147.33 36.6439 147.31 37.1987C147.291 37.7535 147.4 38.3053 147.629 38.8107C147.859 39.3162 148.203 39.7616 148.633 40.1119C149.012 40.4364 149.435 40.7061 149.888 40.9133C150.69 41.3188 151.539 41.6374 152.341 42.0043C152.747 42.1632 153.128 42.3811 153.47 42.6512C153.666 42.7431 153.827 42.8945 153.931 43.0836C154.036 43.2728 154.077 43.49 154.05 43.7043C154.024 43.9186 153.93 44.1189 153.782 44.2766C153.635 44.4343 153.441 44.5413 153.229 44.5822C153.074 44.6497 152.912 44.7015 152.746 44.7367C151.998 44.8658 151.229 44.7821 150.526 44.4953C149.761 44.2202 149.052 43.8115 148.43 43.2885L146.905 45.6636L147.021 45.7891C148.082 46.7252 149.382 47.3488 150.776 47.5908C152.17 47.8329 153.604 47.6838 154.919 47.1602C155.481 46.9559 155.989 46.6237 156.401 46.1897C156.813 45.7557 157.119 45.2319 157.294 44.6595C157.367 44.4488 157.421 44.2324 157.458 44.0126V43.0471C157.332 43.0278 157.332 42.9891 157.332 42.9312Z" fill="#302E3F"/>
<path d="M60.1821 28.2455C60.126 28.236 60.0686 28.238 60.0134 28.2516C59.9582 28.2651 59.9064 28.2898 59.8611 28.3242C59.8158 28.3586 59.7781 28.402 59.7503 28.4515C59.7225 28.5011 59.7051 28.5559 59.6993 28.6124C58.7338 31.4317 57.7683 34.251 56.8028 37.0703C56.0818 38.9631 55.4757 40.8977 54.9876 42.8634C54.9592 43.0557 54.9073 43.2438 54.8331 43.4234C54.7522 43.3329 54.6957 43.2233 54.669 43.1048C54.4662 42.3807 54.3504 41.6565 54.109 40.9228C52.7379 36.7807 51.3283 32.629 49.9186 28.5255C49.913 28.479 49.8977 28.4342 49.8737 28.3939C49.8498 28.3536 49.8177 28.3187 49.7796 28.2915C49.7415 28.2642 49.6981 28.2452 49.6522 28.2356C49.6063 28.2261 49.559 28.2261 49.5131 28.2359H46.4524C46.3565 28.2276 46.2601 28.2442 46.1724 28.2841C46.2121 28.373 46.2382 28.4674 46.2497 28.5641C48.4993 34.7241 50.7586 40.8841 53.0083 47.0538C53.0307 47.1322 53.0773 47.2015 53.1414 47.2518C53.2056 47.3021 53.284 47.3308 53.3655 47.3338H56.1848C56.292 47.3511 56.4018 47.3268 56.4915 47.2657C56.5813 47.2047 56.6443 47.1116 56.6676 47.0055C58.7242 41.2897 60.8193 35.6124 62.9145 29.8869C63.1172 29.3655 63.2717 28.8441 63.4745 28.2841C62.3641 28.2938 61.2731 28.2938 60.1821 28.2455Z" fill="#302E3F"/>
<path d="M86.2414 24.8276C86.8444 24.5175 87.4251 24.1659 87.9793 23.7752L86.6469 21.3227C86.5697 21.3227 86.5697 21.3227 86.5697 21.3227L86.3283 21.4869C85.1451 22.3702 83.6897 22.8109 82.2152 22.7324C81.454 22.689 80.7216 22.4261 80.1065 21.9754C79.4914 21.5248 79.0199 20.9058 78.749 20.1931C78.6465 19.8379 78.5659 19.4768 78.5076 19.1117H88.0952C88.0952 18.3393 88.0952 17.6152 88.0952 16.891C87.8538 14.1972 86.1642 11.571 82.6593 11.3296C81.4165 11.1844 80.1578 11.3906 79.0263 11.9248C77.8947 12.459 76.9356 13.2998 76.258 14.3517C75.5012 15.5564 75.112 16.9555 75.1379 18.3779C75.0661 19.9271 75.5201 21.4551 76.4263 22.7136C77.3325 23.9721 78.6377 24.8873 80.1297 25.3103C82.1534 25.9399 84.3417 25.7671 86.2414 24.8276ZM81.0469 14.1103C81.552 14.0086 82.0694 13.9826 82.5821 14.0331C83.2206 14.1595 83.7891 14.5194 84.1766 15.0425C84.564 15.5657 84.7425 16.2144 84.6773 16.8621H78.749C78.7911 16.2191 79.0364 15.6062 79.4494 15.1116C79.8624 14.6171 80.4218 14.2665 81.0469 14.1103Z" fill="#302E3F"/>
<path d="M70.6966 33.3242C69.532 33.2669 68.3727 33.5157 67.3342 34.0459C66.2958 34.5762 65.4144 35.3693 64.778 36.3463C63.8624 37.779 63.4765 39.4867 63.6869 41.1739C63.756 42.3158 64.1137 43.4216 64.7267 44.3875C65.3397 45.3535 66.1879 46.148 67.1918 46.6967C68.6631 47.4226 70.3099 47.7172 71.9416 47.5463C73.5734 47.3755 75.1234 46.7461 76.4124 45.7311C76.4607 45.7311 76.4607 45.6539 76.4993 45.6153C76.0552 44.8042 75.6497 44.0415 75.2056 43.1918L74.9255 43.3946C73.9814 44.0908 72.8677 44.5209 71.7007 44.6401C70.7362 44.7871 69.7515 44.5727 68.9354 44.0381C68.1192 43.5035 67.5293 42.6864 67.2787 41.7436L67.1531 41.0194H76.6152C76.7408 40.1518 76.7408 39.2705 76.6152 38.4029C76.4379 36.9715 75.7331 35.6577 74.6385 34.7184C73.5439 33.7792 72.1383 33.2821 70.6966 33.3242ZM73.2069 38.7987H67.2787C67.359 37.9837 67.7539 37.2322 68.3793 36.7036C68.8089 36.3352 69.3309 36.0911 69.8889 35.9975C70.447 35.904 71.02 35.9645 71.5462 36.1725C72.0673 36.3754 72.5098 36.7398 72.8086 37.2124C73.1075 37.6851 73.2471 38.241 73.2069 38.7987Z" fill="#302E3F"/>
<path d="M139.171 33.3241C138.113 33.276 137.058 33.4772 136.092 33.9116C135.126 34.346 134.276 35.0014 133.61 35.8248C132.638 37.128 132.11 38.7084 132.103 40.3338C132.034 41.8321 132.452 43.3125 133.294 44.5535C134.137 45.7945 135.358 46.7293 136.777 47.2179C138.78 47.8958 140.965 47.7959 142.898 46.9379C143.645 46.6338 144.339 46.2134 144.954 45.6924C144.51 44.8814 144.066 44.08 143.661 43.2689C142.665 44.0955 141.444 44.6035 140.156 44.7269C139.502 44.8175 138.836 44.7509 138.213 44.5326C137.59 44.3143 137.028 43.9506 136.574 43.4717C135.978 42.8214 135.635 41.9784 135.608 41.0965H145.109C145.109 40.3338 145.109 39.6096 145.109 38.8855C145.089 38.1289 144.919 37.3838 144.609 36.6934C144.299 36.003 143.855 35.3811 143.302 34.8637C142.75 34.3464 142.1 33.9439 141.391 33.6796C140.682 33.4153 139.927 33.2945 139.171 33.3241ZM141.672 38.7986H135.705C135.776 38.3315 135.941 37.8836 136.19 37.482C136.439 37.0804 136.766 36.7334 137.153 36.462C137.537 36.2116 137.97 36.0467 138.423 35.9784C138.876 35.9101 139.339 35.94 139.779 36.0662C140.366 36.2252 140.878 36.5867 141.225 37.0867C141.571 37.5867 141.729 38.1931 141.672 38.7986Z" fill="#302E3F"/>
<path d="M62.1227 25.3104C62.7055 25.5113 63.3129 25.6315 63.9282 25.6677C64.9296 25.7576 65.9354 25.5545 66.8234 25.0831C67.7114 24.6117 68.4432 23.8923 68.9296 23.0125C68.9728 22.9476 69.0115 22.8799 69.0455 22.8097V25.349H72.2414V11.6966H68.8813V17.7408C68.9237 18.751 68.6865 19.7533 68.1958 20.6373C67.8803 21.2469 67.3904 21.7488 66.7886 22.079C66.1867 22.4091 65.5002 22.5526 64.8165 22.4911C64.412 22.5076 64.015 22.3782 63.6978 22.1266C63.3806 21.8749 63.1643 21.5178 63.0882 21.1201C62.9695 20.6336 62.9143 20.1338 62.9241 19.6332V11.6194H59.5448V20.4732C59.5522 21.0007 59.6006 21.5269 59.6896 22.047C59.7398 22.7669 59.9958 23.4572 60.4272 24.0358C60.8586 24.6144 61.4471 25.0568 62.1227 25.3104Z" fill="#302E3F"/>
<path d="M115.323 34.087V39.7642C115.332 40.5354 115.198 41.3015 114.927 42.0236C114.691 42.7362 114.245 43.3605 113.646 43.814C113.048 44.2674 112.326 44.5285 111.577 44.5629C111.321 44.6113 111.058 44.6048 110.805 44.5437C110.552 44.4826 110.314 44.3683 110.109 44.2085C109.903 44.0487 109.734 43.8469 109.613 43.6167C109.491 43.3865 109.42 43.133 109.404 42.8732C109.34 42.4743 109.314 42.0702 109.327 41.6663V33.6911H105.938V42.5449C105.946 43.1297 106.014 43.712 106.141 44.2829C106.24 44.9618 106.522 45.6012 106.955 46.1332C107.389 46.6652 107.958 47.0701 108.603 47.3049C109.335 47.569 110.114 47.6776 110.891 47.6236C111.794 47.6128 112.678 47.3656 113.456 46.9065C114.234 46.4474 114.877 45.7925 115.323 45.007C115.323 45.007 115.41 44.8815 115.487 44.8042V47.2567H118.712V33.6042H115.323V34.087Z" fill="#302E3F"/>
<path d="M89.8331 33.6911C89.059 33.404 88.2341 33.2791 87.4097 33.3242C86.4884 33.3214 85.5828 33.5619 84.7843 34.0214C83.9858 34.4808 83.3227 35.1429 82.8621 35.9407C82.8227 36.0194 82.7667 36.0886 82.698 36.1435V33.6428H79.4828V47.2566H82.8621V41C82.8607 40.5273 82.9027 40.0554 82.9876 39.5904C83.1377 38.6932 83.5996 37.8778 84.292 37.2878C84.9844 36.6979 85.8628 36.3713 86.7724 36.3655C87.0286 36.3276 87.2898 36.3434 87.5395 36.412C87.7892 36.4806 88.0218 36.6005 88.2226 36.764C88.4233 36.9275 88.5878 37.1311 88.7055 37.3617C88.8232 37.5923 88.8916 37.845 88.9062 38.1035C88.9704 38.5445 88.9962 38.9904 88.9835 39.4359V47.2469H92.3242V38.5573C92.3299 37.9647 92.2781 37.373 92.1697 36.7904C92.1215 36.1032 91.8752 35.4447 91.4605 34.8946C91.0458 34.3445 90.4805 33.9265 89.8331 33.6911Z" fill="#302E3F"/>
<path d="M49.629 17.654H55.4221C55.9917 17.654 55.9048 17.7409 55.9048 17.1712V14.6705H49.629V9.23469H57.1214V6.33813H46.1724V25.3105H49.5904L49.629 17.654Z" fill="#302E3F"/>
<path d="M102.317 44.4374C102.023 44.4491 101.729 44.4017 101.453 44.2982C101.178 44.1948 100.925 44.0372 100.711 43.8348C100.497 43.6324 100.326 43.3893 100.207 43.1197C100.088 42.8502 100.024 42.5596 100.019 42.265C99.942 40.4112 100.019 38.5961 100.019 36.7519C100.019 36.5492 100.135 36.5492 100.261 36.5492H103.157V33.8457H100.058V29.9836C99.9324 29.9836 99.8552 29.9836 99.7779 29.9836H97.0745C96.7945 29.9836 96.7558 30.0705 96.7558 30.3505V33.5754C96.7731 33.7068 96.7731 33.8398 96.7558 33.9712H94.9407V36.6747H96.7172V38.4416C96.7172 40.054 96.7172 41.705 96.7945 43.3174C96.8232 44.1603 97.1086 44.9743 97.6124 45.6507C98.1162 46.327 98.8144 46.8334 99.6138 47.1023C100.39 47.4268 101.225 47.591 102.066 47.585C102.51 47.585 102.954 47.585 103.437 47.585V44.4857C102.964 44.4374 102.636 44.4857 102.317 44.4374Z" fill="#302E3F"/>
<path d="M96.0318 22.4526H95.4138C95.127 22.4731 94.8429 22.3853 94.6177 22.2065C94.3925 22.0278 94.2424 21.7711 94.1973 21.4871C94.1523 21.1283 94.1265 20.7673 94.12 20.4057V6.33813H90.7407V20.9561C90.7405 21.47 90.7793 21.9832 90.8566 22.4912C90.9151 23.065 91.1247 23.6129 91.4639 24.0793C91.8031 24.5457 92.2598 24.9139 92.7876 25.1464C93.829 25.5352 94.9531 25.6483 96.0511 25.4747L96.0318 22.4526Z" fill="#302E3F"/>
<path d="M130.51 33.4883C130.051 33.4885 129.592 33.5273 129.139 33.6041C128.4 33.8004 127.721 34.175 127.16 34.6952C126.599 35.2154 126.175 35.8652 125.924 36.5876L125.76 36.9931V33.691H122.535V47.3048H125.924V42.0621C125.916 41.4694 125.968 40.8775 126.079 40.2952C126.167 39.486 126.506 38.7246 127.047 38.1171C127.589 37.5096 128.307 37.0863 129.101 36.9062C129.648 36.8295 130.199 36.7908 130.752 36.7903V33.691C130.752 33.6041 130.588 33.4883 130.51 33.4883Z" fill="#302E3F"/>
</svg>
